<?xml version="1.0" standalone="no"?>
<!DOCTYPE svg PUBLIC "-//W3C//DTD SVG 20010904//EN"
 "http://www.w3.org/TR/2001/REC-SVG-20010904/DTD/svg10.dtd">
<svg version="1.0" xmlns="http://www.w3.org/2000/svg"
 width="791.000000pt" height="694.000000pt" viewBox="0 0 791.000000 694.000000"
 preserveAspectRatio="xMidYMid meet">

<g transform="translate(0.000000,694.000000) scale(0.100000,-0.100000)"
fill="#000000" stroke="none">
<path d="M6144 6870 c-44 -19 -84 -66 -84 -97 0 -47 78 -93 158 -93 57 0 145
40 169 76 26 40 10 90 -37 114 -51 26 -148 26 -206 0z"/>
<path d="M1055 6771 c-267 -71 -383 -293 -348 -664 4 -46 11 -71 21 -74 23 -9
28 12 21 89 -9 82 -3 221 12 286 16 73 66 167 113 214 77 77 172 114 329 126
72 5 92 10 92 22 0 24 -152 24 -240 1z"/>
<path d="M1343 6774 c-8 -23 5 -32 60 -39 28 -3 87 -16 131 -27 64 -17 80 -18
86 -7 15 24 -8 36 -113 57 -150 30 -158 31 -164 16z"/>
<path d="M5783 6740 c-89 -51 -139 -146 -113 -211 17 -41 81 -52 135 -23 17 9
42 23 56 31 37 19 50 36 70 96 24 69 23 79 -6 111 -32 35 -76 34 -142 -4z"/>
<path d="M5400 6723 c-8 -4 -28 -19 -45 -35 -16 -15 -33 -28 -37 -28 -15 0
-58 -91 -58 -124 0 -55 30 -80 91 -74 27 3 57 12 67 22 10 9 26 16 35 16 21 0
87 100 94 143 3 23 -1 40 -17 60 -18 23 -29 27 -68 26 -26 0 -54 -3 -62 -6z"/>
<path d="M1670 6691 c0 -14 26 -28 119 -63 114 -43 151 -47 139 -16 -6 13
-218 98 -245 98 -7 0 -13 -8 -13 -19z"/>
<path d="M6520 6675 c-107 -34 -145 -127 -68 -167 45 -23 64 -27 125 -29 45
-2 60 3 108 34 59 40 75 72 56 113 -26 59 -121 80 -221 49z"/>
<path d="M6913 6653 c-13 -2 -33 -19 -45 -36 -42 -59 -24 -205 32 -264 11 -13
24 -23 28 -24 4 0 18 -2 31 -5 51 -9 89 54 93 152 2 60 -1 74 -22 104 -57 80
-62 84 -117 73z"/>
<path d="M1970 6572 c0 -12 20 -27 63 -46 34 -16 86 -40 115 -54 49 -24 54
-24 69 -9 16 15 9 20 -100 72 -127 59 -147 65 -147 37z"/>
<path d="M6078 6537 c-31 -18 -38 -28 -37 -52 0 -51 30 -95 84 -126 91 -51
221 -32 246 37 9 27 -23 102 -54 123 -62 45 -180 53 -239 18z"/>
<path d="M2254 6439 c-8 -13 -1 -20 56 -51 25 -14 74 -42 109 -63 58 -34 64
-36 79 -21 9 8 14 17 11 19 -19 17 -221 127 -233 127 -8 0 -18 -5 -22 -11z"/>
<path d="M5553 6411 c-29 -9 -62 -27 -73 -39 -12 -12 -25 -22 -30 -22 -14 0
-40 -55 -40 -84 0 -19 12 -34 43 -57 39 -29 46 -30 101 -24 93 10 150 47 181
115 17 37 17 41 1 65 -18 27 -85 66 -113 64 -10 -1 -42 -9 -70 -18z"/>
<path d="M5195 6402 c-64 -8 -169 -109 -179 -173 -6 -39 5 -76 28 -91 26 -18
102 -8 136 17 19 14 39 25 46 25 18 0 33 23 55 82 25 68 24 90 -3 115 -28 25
-44 30 -83 25z"/>
<path d="M4775 6361 c-44 -9 -106 -57 -139 -108 -24 -37 -28 -52 -23 -90 2
-24 10 -50 15 -55 20 -20 95 -14 147 12 58 29 66 38 100 102 32 60 31 85 -2
120 -27 28 -41 31 -98 19z"/>
<path d="M6697 6299 c-9 -5 -26 -28 -38 -51 -35 -68 -10 -207 45 -255 70 -60
137 -5 144 117 3 56 0 74 -22 118 -37 74 -82 98 -129 71z"/>
<path d="M2537 6283 c-14 -14 -4 -23 79 -78 76 -49 89 -55 101 -42 18 18 16
19 -82 82 -68 45 -85 51 -98 38z"/>
<path d="M7069 6269 c-51 -24 -62 -38 -85 -111 -20 -68 -15 -139 14 -177 16
-21 27 -26 60 -24 55 2 88 27 119 86 21 43 24 61 21 118 -3 54 -8 73 -27 93
-32 34 -52 37 -102 15z"/>
<path d="M2757 6153 c-19 -19 1 -43 80 -95 65 -43 90 -54 100 -46 7 6 13 14
13 18 0 6 -175 130 -184 130 -1 0 -6 -3 -9 -7z"/>
<path d="M4904 6046 c-75 -24 -144 -93 -144 -145 0 -11 17 -33 37 -50 33 -27
45 -31 101 -31 56 0 70 4 117 35 92 61 104 140 29 182 -44 25 -80 28 -140 9z"/>
<path d="M2973 5984 c-3 -9 -2 -19 4 -23 5 -3 49 -35 97 -70 79 -57 89 -62
103 -48 14 13 5 22 -79 86 -52 39 -100 71 -107 71 -6 0 -14 -7 -18 -16z"/>
<path d="M4225 5981 c-59 -27 -87 -62 -83 -102 4 -47 50 -75 133 -84 59 -7 71
-5 123 21 65 33 89 68 75 112 -21 63 -159 93 -248 53z"/>
<path d="M733 5975 c-3 -10 2 -51 11 -91 14 -60 21 -74 37 -74 24 0 24 23 1
109 -17 65 -37 87 -49 56z"/>
<path d="M6939 5851 c-50 -27 -63 -60 -44 -109 20 -50 47 -72 113 -96 62 -22
137 -18 178 8 24 16 26 22 22 67 -4 33 -13 58 -28 74 -59 63 -176 90 -241 56z"/>
<path d="M3217 5823 c-12 -12 -7 -41 8 -47 26 -10 16 -23 -32 -41 -74 -28
-164 -75 -204 -106 -78 -61 -115 -185 -84 -282 22 -70 45 -94 130 -138 53 -27
74 -44 88 -71 22 -45 36 -155 37 -290 l0 -107 -35 -12 c-43 -16 -70 -65 -56
-102 5 -14 30 -39 54 -57 l44 -31 7 -197 c9 -257 4 -282 -75 -367 -33 -34 -92
-85 -131 -111 -85 -57 -203 -172 -271 -264 -151 -204 -189 -260 -224 -326
l-38 -74 -56 62 c-40 45 -60 60 -72 55 -9 -3 -17 -11 -17 -16 0 -5 28 -42 62
-82 l62 -71 -17 -30 c-9 -16 -17 -35 -17 -42 0 -8 -16 -46 -36 -85 -20 -40
-39 -95 -44 -124 -4 -29 -25 -110 -46 -182 l-38 -130 0 -215 c-1 -331 43 -541
155 -749 35 -66 132 -216 185 -289 16 -21 16 -22 -8 -22 -33 0 -61 -33 -60
-69 1 -44 65 -126 112 -145 68 -27 150 -17 150 19 0 23 12 18 65 -28 101 -87
247 -177 287 -177 8 0 17 -3 21 -6 10 -10 135 -50 232 -74 166 -41 249 -50
481 -57 260 -7 399 4 545 41 52 14 117 28 144 32 28 3 55 10 60 14 6 4 32 13
59 20 28 8 73 25 100 38 28 13 60 28 71 33 11 5 27 14 36 20 13 10 35 0 120
-53 57 -36 121 -75 142 -87 20 -11 54 -31 75 -42 123 -71 164 -90 177 -85 16
6 21 36 5 36 -5 0 -31 13 -58 29 -26 15 -70 40 -98 55 -89 49 -253 149 -281
171 l-27 22 65 60 c35 34 84 78 108 99 92 80 159 181 256 378 158 326 188 431
236 808 17 136 -8 375 -52 498 -39 108 -60 173 -57 175 2 1 18 7 36 15 35 13
85 70 102 114 17 44 -10 93 -55 102 -49 9 -111 0 -130 -20 -9 -9 -20 -16 -24
-16 -5 0 -34 37 -64 83 -53 78 -194 239 -363 413 -83 85 -117 112 -199 158
-27 16 -74 47 -104 70 -60 45 -53 41 -188 115 -180 101 -232 171 -253 346 -7
55 -16 116 -19 135 -4 19 -5 122 -3 228 3 146 7 192 17 192 22 0 25 28 4 51
-16 18 -19 37 -19 116 0 52 4 103 10 113 5 10 30 31 54 46 47 30 96 102 99
148 1 16 15 33 37 48 39 27 49 62 29 109 -14 34 -63 79 -87 79 -9 1 -39 21
-67 46 -103 93 -212 123 -472 131 -135 4 -188 2 -245 -10 -40 -9 -114 -21
-164 -28 l-92 -12 -34 27 c-38 28 -41 29 -51 19z m646 -104 c118 -17 213 -40
243 -58 16 -10 48 -46 72 -82 40 -59 43 -67 40 -123 -3 -59 -4 -61 -53 -98
-27 -20 -60 -56 -74 -79 -23 -38 -24 -50 -23 -168 0 -69 -3 -162 -8 -206 -5
-48 -5 -100 1 -130 6 -34 6 -73 -2 -120 -9 -60 -8 -93 10 -224 29 -206 52
-274 114 -348 57 -67 118 -112 232 -173 44 -24 121 -70 170 -104 50 -34 108
-70 130 -81 67 -33 330 -309 467 -490 72 -96 115 -188 192 -415 31 -89 38
-128 47 -250 13 -170 8 -228 -32 -410 -37 -168 -96 -345 -153 -464 -24 -50
-56 -117 -70 -150 -64 -144 -136 -234 -301 -375 -102 -87 -141 -110 -264 -151
-47 -16 -106 -38 -131 -49 -25 -11 -106 -32 -180 -47 -124 -25 -155 -27 -385
-28 -238 -1 -257 0 -390 28 -151 31 -348 91 -429 132 -66 33 -136 85 -267 200
-98 86 -131 122 -185 199 -93 134 -115 171 -151 250 -79 173 -126 412 -126
640 0 142 10 208 53 360 11 39 25 94 30 123 15 84 181 424 276 564 119 174
192 253 313 338 134 95 223 176 262 239 38 62 51 195 39 386 -31 465 -67 761
-101 840 -19 44 -60 80 -123 110 -31 14 -65 38 -76 52 -45 58 -12 153 73 207
129 82 301 129 572 154 50 5 96 10 103 10 7 1 46 -3 85 -9z"/>
<path d="M3818 5614 c-26 -8 -50 -19 -54 -26 -11 -17 34 -48 70 -48 l31 0 -40
-34 c-40 -34 -70 -45 -194 -72 -97 -21 -361 -3 -361 25 0 4 45 17 101 29 56
12 115 28 132 36 18 8 49 22 70 30 21 9 36 20 32 26 -9 14 -63 12 -180 -5
-180 -27 -199 -33 -239 -72 -20 -20 -36 -41 -36 -48 0 -19 56 -69 104 -93 95
-48 395 -51 550 -5 108 32 215 120 215 178 0 41 -18 62 -69 80 -51 18 -71 18
-132 -1z"/>
<path d="M3655 4888 c-82 -96 -88 -185 -14 -224 64 -33 160 -12 195 41 25 38
15 137 -17 171 -62 66 -114 70 -164 12z m122 -75 c15 -32 15 -37 0 -69 -16
-32 -20 -34 -65 -34 -56 0 -72 12 -71 55 1 48 13 68 50 80 47 16 66 9 86 -32z"/>
<path d="M3667 4359 c-60 -63 -79 -105 -78 -180 0 -100 31 -130 136 -130 81 0
142 26 183 79 58 74 64 143 18 212 -27 41 -96 70 -165 70 -41 0 -49 -5 -94
-51z m194 -55 c14 -12 19 -31 19 -65 0 -41 -4 -51 -33 -76 -101 -89 -220 -51
-187 60 15 52 38 87 64 98 31 13 116 2 137 -17z"/>
<path d="M4234 3692 c-56 -32 -74 -49 -80 -78 -5 -25 2 -39 38 -83 67 -83 84
-112 97 -166 26 -111 63 -155 130 -155 67 0 162 76 196 156 35 85 4 183 -70
218 -22 10 -52 35 -66 56 -45 63 -175 91 -245 52z m206 -84 c33 -29 77 -67 98
-85 34 -29 37 -36 37 -85 0 -90 -76 -178 -154 -178 -43 0 -68 32 -86 112 -16
71 -32 103 -74 148 -41 43 -53 69 -47 93 8 32 40 46 109 46 55 1 59 -1 117
-51z"/>
<path d="M3691 3652 c-82 -34 -143 -95 -170 -167 -26 -68 -26 -98 -2 -150 28
-62 84 -101 177 -125 91 -23 165 8 217 91 26 43 28 55 28 138 0 79 -4 99 -28
147 -44 91 -115 112 -222 66z m123 -66 c27 -11 35 -22 45 -59 25 -103 5 -192
-52 -227 -39 -24 -78 -25 -135 -2 -59 25 -80 45 -88 87 -10 53 10 107 57 154
57 57 113 72 173 47z"/>
<path d="M4334 3090 c-50 -20 -129 -62 -175 -91 -103 -66 -150 -89 -264 -127
-33 -11 -73 -23 -90 -26 -16 -4 -74 -20 -127 -37 l-98 -31 -57 18 c-147 43
-225 54 -382 54 -132 0 -172 -4 -256 -25 -198 -48 -322 -110 -367 -184 -20
-31 -21 -48 -21 -245 -1 -226 9 -301 59 -455 71 -217 251 -464 440 -603 138
-101 404 -198 599 -218 317 -33 720 6 905 87 89 39 311 218 417 336 70 77 172
214 198 264 10 21 27 49 36 63 29 44 76 191 93 295 9 55 21 124 26 154 16 91
12 200 -9 256 -11 27 -22 61 -25 75 -15 72 -162 249 -284 342 -139 106 -233
138 -402 137 -121 -1 -128 -2 -216 -39z m377 -74 c26 -8 65 -26 88 -40 22 -14
45 -26 51 -26 14 0 12 -27 -2 -33 -7 -2 -10 -8 -6 -12 4 -4 14 -2 23 5 18 15
33 6 109 -61 45 -40 106 -114 106 -128 0 -3 -14 -6 -32 -5 -17 0 -43 -5 -57
-12 -62 -30 -208 -64 -367 -85 l-171 -21 -163 21 c-91 12 -208 33 -261 46 -54
14 -109 25 -123 25 -13 0 -31 7 -40 15 -8 8 -27 15 -43 16 -15 0 -37 4 -48 8
-17 7 -14 10 20 19 22 6 56 13 75 17 19 4 51 16 70 26 19 10 64 28 100 39 36
12 84 33 108 46 26 16 50 23 62 19 30 -10 24 -26 -7 -20 -27 5 -27 5 -5 -5 19
-8 29 -6 50 11 25 20 25 21 5 17 -13 -4 -24 0 -27 8 -3 9 2 14 14 14 11 0 20
7 20 14 0 28 132 78 260 100 40 7 141 -3 191 -18z m-1391 -273 c8 -3 35 -10
60 -14 47 -9 75 -16 75 -19 0 -1 18 -4 40 -6 22 -3 42 -9 43 -14 2 -6 13 -10
25 -10 25 0 163 -43 174 -53 3 -4 19 -7 35 -7 15 0 28 -4 28 -10 0 -5 8 -10
18 -10 10 0 45 -8 78 -19 53 -17 188 -45 275 -57 19 -3 41 -8 49 -11 25 -10
42 -12 140 -19 122 -7 439 22 495 46 59 25 192 60 230 60 38 0 47 -4 70 -35
28 -36 29 -50 10 -190 -3 -22 -10 -80 -15 -130 -10 -83 -25 -146 -41 -170 -3
-5 -9 -27 -13 -47 -7 -39 -44 -122 -76 -173 -11 -16 -24 -41 -30 -53 -6 -13
-19 -26 -30 -29 -11 -3 -20 -12 -20 -20 0 -8 -15 -34 -34 -59 -31 -41 -36 -43
-46 -27 -10 16 -11 14 -6 -8 7 -31 -34 -85 -51 -68 -6 6 -15 4 -23 -6 -11 -13
-10 -14 4 -9 23 9 20 -9 -5 -32 -16 -14 -23 -15 -26 -6 -8 22 -25 13 -19 -11
4 -18 -3 -29 -31 -52 -59 -48 -85 -64 -98 -59 -6 3 -20 -6 -31 -18 l-19 -23
21 17 c31 27 41 22 14 -7 -13 -14 -29 -25 -37 -25 -7 0 -13 -4 -13 -9 0 -48
-403 -146 -600 -146 -288 1 -444 11 -433 28 4 6 1 7 -6 2 -11 -6 -63 10 -113
36 -10 5 -31 9 -47 9 -39 0 -101 27 -97 43 1 6 1 9 -1 5 -10 -18 -57 -2 -93
31 -13 13 -11 14 20 8 29 -5 25 -1 -25 23 -66 33 -80 37 -51 15 11 -8 17 -17
14 -21 -4 -3 -36 18 -73 47 -49 39 -63 54 -53 61 9 6 6 7 -8 3 -15 -4 -26 1
-37 17 -8 13 -32 41 -53 63 -79 82 -146 185 -149 228 -3 41 -15 77 -26 77 -12
0 -11 -17 1 -25 12 -8 13 -45 1 -45 -5 0 -11 8 -14 18 -3 9 -23 68 -45 130
-22 61 -36 115 -31 118 5 3 9 13 8 22 0 14 -2 14 -8 -2 -6 -17 -9 -16 -18 10
-19 48 -23 107 -24 291 0 152 2 178 17 194 9 10 23 19 30 19 7 0 17 6 21 14 8
14 136 70 188 82 17 4 35 10 40 14 15 10 114 30 170 34 63 4 255 -4 275 -11z"/>
<path d="M4428 2983 c7 -3 16 -2 19 1 4 3 -2 6 -13 5 -11 0 -14 -3 -6 -6z"/>
<path d="M4880 2902 c0 -4 10 -13 23 -21 22 -14 22 -14 3 8 -20 22 -26 25 -26
13z"/>
<path d="M4880 2859 c0 -5 5 -7 10 -4 6 3 10 8 10 11 0 2 -4 4 -10 4 -5 0 -10
-5 -10 -11z"/>
<path d="M4920 2846 c0 -8 5 -18 10 -21 6 -3 10 3 10 14 0 12 -4 21 -10 21 -5
0 -10 -6 -10 -14z"/>
<path d="M4120 2840 c0 -5 5 -10 10 -10 6 0 10 5 10 10 0 6 -4 10 -10 10 -5 0
-10 -4 -10 -10z"/>
<path d="M4971 2807 c2 -1 13 -9 24 -17 19 -14 19 -14 6 3 -7 9 -18 17 -24 17
-6 0 -8 -1 -6 -3z"/>
<path d="M4945 2780 c4 -6 11 -8 16 -5 14 9 11 15 -7 15 -8 0 -12 -5 -9 -10z"/>
<path d="M3872 2741 c-11 -6 -10 -10 5 -16 28 -12 53 -13 60 -2 12 20 -39 35
-65 18z"/>
<path d="M5030 2740 c20 -13 33 -13 25 0 -3 6 -14 10 -23 10 -15 0 -15 -2 -2
-10z"/>
<path d="M4960 2728 c0 -4 7 -8 15 -8 8 0 15 4 15 8 0 5 -7 9 -15 9 -8 0 -15
-4 -15 -9z"/>
<path d="M4690 2710 c0 -5 9 -10 19 -10 11 0 23 5 26 10 4 6 -5 10 -19 10 -14
0 -26 -4 -26 -10z"/>
<path d="M3970 2700 c8 -5 22 -9 30 -9 10 0 8 3 -5 9 -27 12 -43 12 -25 0z"/>
<path d="M4588 2703 c7 -3 16 -2 19 1 4 3 -2 6 -13 5 -11 0 -14 -3 -6 -6z"/>
<path d="M4833 2684 c-18 -8 -33 -16 -33 -18 0 -7 74 15 85 25 14 13 -15 10
-52 -7z"/>
<path d="M4708 2680 c13 -6 31 -6 45 0 18 7 14 9 -23 9 -37 0 -41 -2 -22 -9z"/>
<path d="M4330 2640 c-13 -8 -13 -10 2 -10 9 0 20 5 23 10 8 13 -5 13 -25 0z"/>
<path d="M4395 2630 c-4 -6 3 -10 14 -10 25 0 27 6 6 13 -8 4 -17 2 -20 -3z"/>
<path d="M2987 2728 c-7 -5 1 -8 21 -8 17 0 32 -4 32 -10 0 -5 5 -10 10 -10 6
0 6 7 -1 18 -12 18 -41 23 -62 10z"/>
<path d="M3080 2730 c-22 -7 -21 -8 13 -9 23 -1 36 3 32 9 -7 11 -10 11 -45 0z"/>
<path d="M3275 2721 c-3 -5 0 -13 6 -17 7 -4 9 -3 5 4 -3 5 0 13 6 15 9 4 10
6 1 6 -6 1 -14 -3 -18 -8z"/>
<path d="M3398 2703 c7 -3 16 -2 19 1 4 3 -2 6 -13 5 -11 0 -14 -3 -6 -6z"/>
<path d="M2840 2690 c0 -13 11 -13 30 0 12 8 11 10 -7 10 -13 0 -23 -4 -23
-10z"/>
<path d="M3520 2670 c0 -5 7 -10 16 -10 8 0 12 5 9 10 -3 6 -10 10 -16 10 -5
0 -9 -4 -9 -10z"/>
<path d="M2841 2650 c-18 -16 -32 -19 -62 -14 -24 4 -44 2 -53 -5 -10 -8 -16
-9 -21 -1 -3 6 -11 8 -16 4 -5 -3 -7 -9 -4 -14 3 -5 -1 -12 -8 -17 -22 -13
-37 -49 -37 -88 0 -22 -4 -34 -10 -30 -6 4 -10 -7 -9 -27 0 -27 2 -30 9 -13 7
17 9 14 9 -13 1 -19 10 -68 20 -110 18 -73 33 -201 35 -304 1 -27 4 -48 8 -48
3 0 9 -18 13 -40 4 -23 14 -54 22 -70 8 -17 12 -39 8 -49 -3 -11 0 -23 7 -27
6 -4 14 -2 16 5 3 8 8 6 18 -6 18 -24 17 -33 -2 -33 -8 0 -12 -5 -9 -10 4 -6
10 -8 15 -5 11 7 61 -23 73 -42 4 -7 14 -13 21 -13 7 0 24 -10 38 -22 28 -26
78 -48 125 -55 18 -3 31 -9 28 -13 -5 -8 20 -22 40 -24 6 -1 10 -8 10 -16 0
-8 12 -26 26 -40 13 -14 31 -34 39 -45 27 -37 177 -125 213 -125 10 0 16 -4
13 -9 -14 -22 149 -31 284 -17 69 8 80 6 134 -18 32 -14 65 -26 72 -26 8 0 14
-4 14 -10 0 -5 11 -10 25 -10 14 0 25 -3 25 -7 0 -5 34 -8 75 -8 41 -1 75 3
75 7 0 4 15 8 34 8 19 0 38 5 42 11 3 6 19 9 35 5 15 -3 31 -1 34 5 4 5 15 7
26 4 10 -4 29 1 41 9 18 13 19 16 5 16 -9 0 -17 -4 -17 -10 0 -5 -7 -10 -15
-10 -8 0 -15 4 -15 10 0 13 32 29 55 27 11 -1 19 3 18 10 -2 6 7 15 19 19 12
3 39 19 61 35 22 16 43 26 48 23 5 -3 12 1 15 10 3 8 24 27 47 42 23 16 54 41
68 56 14 16 31 28 37 28 7 0 12 4 12 9 0 5 14 20 32 32 25 18 30 19 25 6 -4
-11 -2 -14 9 -10 7 3 14 14 14 25 0 11 8 22 20 25 11 3 20 12 20 20 0 10 6 13
17 9 10 -4 14 -4 10 0 -3 4 8 25 26 47 28 36 32 48 30 91 -2 39 -8 54 -25 68
-13 10 -28 18 -34 18 -6 0 -17 7 -24 15 -11 13 -10 14 4 9 9 -3 16 -2 16 4 0
6 -5 12 -12 14 -8 3 -4 20 12 54 19 39 24 65 25 129 0 102 -7 126 -46 149 -27
16 -33 16 -45 4 -13 -13 -12 -18 4 -39 31 -39 36 -83 17 -160 -22 -88 -45
-109 -114 -103 -35 3 -52 0 -61 -11 -36 -44 -64 19 -50 115 5 38 20 79 39 110
34 55 40 90 16 90 -9 0 -26 -11 -39 -25 -13 -13 -26 -22 -29 -18 -4 3 -7 -3
-7 -15 0 -23 -18 -62 -34 -73 -5 -4 -5 -12 -1 -19 4 -7 2 -16 -6 -20 -8 -6
-13 -35 -14 -88 -1 -44 -6 -86 -10 -93 -7 -11 -6 -12 7 -2 8 7 18 10 21 6 12
-11 7 -43 -6 -43 -7 0 -29 -15 -49 -33 -20 -19 -53 -44 -72 -58 -20 -13 -36
-27 -36 -31 0 -5 -15 -8 -33 -8 -18 0 -37 -4 -42 -9 -20 -18 -147 -41 -227
-41 -46 -1 -103 -6 -128 -11 -54 -13 -199 -26 -208 -19 -4 3 -12 14 -18 24 -6
11 -42 41 -80 68 -38 26 -82 59 -98 73 -15 14 -32 25 -36 25 -4 0 -18 11 -31
25 -13 13 -32 25 -41 25 -10 0 -18 7 -18 15 0 8 -5 15 -11 15 -11 0 -124 117
-124 128 0 4 -9 18 -21 30 -11 12 -32 46 -45 75 -13 28 -26 54 -29 57 -10 10
-32 83 -40 133 -30 193 -42 227 -95 275 -25 23 -45 32 -70 32 -18 0 -39 2 -47
5 -7 2 -24 -4 -37 -15z m1792 -747 c-7 -2 -21 -2 -30 0 -10 3 -4 5 12 5 17 0
24 -2 18 -5z"/>
<path d="M3468 2643 c6 -2 18 -2 25 0 6 3 1 5 -13 5 -14 0 -19 -2 -12 -5z"/>
<path d="M3528 2633 c6 -2 18 -2 25 0 6 3 1 5 -13 5 -14 0 -19 -2 -12 -5z"/>
<path d="M2625 2580 c3 -5 8 -10 11 -10 2 0 4 5 4 10 0 6 -5 10 -11 10 -5 0
-7 -4 -4 -10z"/>
<path d="M3085 2569 c-7 -21 7 -39 30 -39 6 0 4 4 -4 9 -8 5 -11 16 -6 30 3
12 2 21 -4 21 -5 0 -13 -10 -16 -21z"/>
<path d="M5068 2578 c5 -5 16 -8 23 -6 8 3 3 7 -10 11 -17 4 -21 3 -13 -5z"/>
<path d="M5117 2569 c4 -13 8 -18 11 -10 2 7 -1 18 -6 23 -8 8 -9 4 -5 -13z"/>
<path d="M3760 2570 c0 -5 7 -7 15 -4 8 4 15 8 15 10 0 2 -7 4 -15 4 -8 0 -15
-4 -15 -10z"/>
<path d="M3830 2560 c6 -11 13 -20 16 -20 3 0 2 5 -1 10 -3 6 -1 10 4 10 6 0
11 5 11 10 0 6 -9 10 -20 10 -18 0 -19 -3 -10 -20z"/>
<path d="M2600 2550 c0 -5 5 -10 11 -10 5 0 7 5 4 10 -3 6 -8 10 -11 10 -2 0
-4 -4 -4 -10z"/>
<path d="M3880 2550 c0 -5 5 -10 10 -10 6 0 10 5 10 10 0 6 -4 10 -10 10 -5 0
-10 -4 -10 -10z"/>
<path d="M4968 2553 c6 -2 18 -2 25 0 6 3 1 5 -13 5 -14 0 -19 -2 -12 -5z"/>
<path d="M5142 2495 c-2 -33 13 -64 25 -52 4 5 2 11 -4 15 -6 4 -13 21 -16 37
l-4 30 -1 -30z"/>
<path d="M4768 2504 c-3 -3 -21 -6 -39 -6 -19 -1 -28 -3 -21 -5 18 -7 15 -21
-5 -26 -10 -3 -4 -5 14 -6 25 -1 31 2 27 14 -5 12 2 15 31 15 21 0 34 4 30 10
-7 11 -28 13 -37 4z"/>
<path d="M4131 2496 c12 -10 79 -16 79 -6 0 5 -19 10 -42 10 -23 0 -39 -2 -37
-4z"/>
<path d="M4108 2473 c7 -3 16 -2 19 1 4 3 -2 6 -13 5 -11 0 -14 -3 -6 -6z"/>
<path d="M4230 2470 c-12 -8 -10 -10 8 -10 13 0 20 4 17 10 -7 12 -6 12 -25 0z"/>
<path d="M4328 2473 c7 -3 16 -2 19 1 4 3 -2 6 -13 5 -11 0 -14 -3 -6 -6z"/>
<path d="M4521 2476 c2 -2 18 -6 34 -10 22 -5 26 -4 15 4 -14 9 -59 15 -49 6z"/>
<path d="M4608 2473 c12 -2 30 -2 40 0 9 3 -1 5 -23 4 -22 0 -30 -2 -17 -4z"/>
<path d="M5124 2450 c3 -14 6 -36 7 -50 0 -23 1 -23 9 -5 13 29 12 39 -6 61
-15 18 -15 18 -10 -6z"/>
<path d="M3680 2426 c0 -18 4 -24 15 -20 8 4 15 8 15 11 0 2 -7 11 -15 19 -13
14 -15 13 -15 -10z"/>
<path d="M2622 2380 c0 -19 2 -27 5 -17 2 9 2 25 0 35 -3 9 -5 1 -5 -18z"/>
<path d="M2591 2341 c-1 -36 2 -52 9 -45 6 6 6 26 1 54 l-9 45 -1 -54z"/>
<path d="M5131 2354 c0 -11 3 -14 6 -6 3 7 2 16 -1 19 -3 4 -6 -2 -5 -13z"/>
<path d="M2631 2304 c0 -11 3 -14 6 -6 3 7 2 16 -1 19 -3 4 -6 -2 -5 -13z"/>
<path d="M4095 2310 c-3 -5 -1 -10 4 -10 6 0 11 5 11 10 0 6 -2 10 -4 10 -3 0
-8 -4 -11 -10z"/>
<path d="M3441 2294 c0 -11 3 -14 6 -6 3 7 2 16 -1 19 -3 4 -6 -2 -5 -13z"/>
<path d="M4570 2291 c0 -5 -8 -12 -17 -14 -15 -4 -15 -5 -2 -6 9 0 22 6 29 14
9 10 9 15 1 15 -6 0 -11 -4 -11 -9z"/>
<path d="M4615 2289 c-11 -16 -1 -19 13 -3 7 8 8 14 3 14 -5 0 -13 -5 -16 -11z"/>
<path d="M4820 2270 c0 -5 5 -10 11 -10 5 0 7 5 4 10 -3 6 -8 10 -11 10 -2 0
-4 -4 -4 -10z"/>
<path d="M3880 2260 c0 -5 5 -10 11 -10 5 0 7 5 4 10 -3 6 -8 10 -11 10 -2 0
-4 -4 -4 -10z"/>
<path d="M3666 2252 c-2 -4 -1 -14 5 -22 7 -12 9 -10 9 8 0 23 -5 28 -14 14z"/>
<path d="M2601 2225 c0 -11 4 -29 9 -40 8 -18 9 -18 9 5 0 14 -4 32 -9 40 -8
12 -10 12 -9 -5z"/>
<path d="M4840 2230 c0 -5 5 -10 10 -10 6 0 10 5 10 10 0 6 -4 10 -10 10 -5 0
-10 -4 -10 -10z"/>
<path d="M4038 2223 c7 -3 16 -2 19 1 4 3 -2 6 -13 5 -11 0 -14 -3 -6 -6z"/>
<path d="M4487 2200 c3 -11 7 -20 9 -20 2 0 4 9 4 20 0 11 -4 20 -9 20 -5 0
-7 -9 -4 -20z"/>
<path d="M4862 2180 c0 -14 2 -19 5 -12 2 6 2 18 0 25 -3 6 -5 1 -5 -13z"/>
<path d="M4866 2138 c-20 -75 -23 -98 -11 -88 7 6 15 31 17 55 3 44 1 58 -6
33z"/>
<path d="M4890 2125 c0 -8 5 -15 10 -15 6 0 10 7 10 15 0 8 -4 15 -10 15 -5 0
-10 -7 -10 -15z"/>
<path d="M4930 2125 c0 -8 5 -15 10 -15 6 0 10 7 10 15 0 8 -4 15 -10 15 -5 0
-10 -7 -10 -15z"/>
<path d="M4418 2075 c-4 -20 -3 -23 8 -14 16 13 19 39 5 39 -5 0 -11 -11 -13
-25z"/>
<path d="M5073 2071 c4 -19 1 -33 -8 -41 -8 -6 -11 -18 -8 -27 5 -13 8 -12 16
3 14 25 18 94 5 94 -6 0 -8 -12 -5 -29z"/>
<path d="M4436 2034 c-4 -14 -5 -29 -2 -31 3 -3 8 7 12 21 3 15 4 29 1 32 -2
3 -8 -7 -11 -22z"/>
<path d="M5040 2049 c0 -5 5 -7 10 -4 6 3 10 8 10 11 0 2 -4 4 -10 4 -5 0 -10
-5 -10 -11z"/>
<path d="M5040 1991 c0 -6 4 -13 10 -16 6 -3 7 1 4 9 -7 18 -14 21 -14 7z"/>
<path d="M4552 1978 c2 -6 10 -13 16 -14 7 -1 8 0 2 3 -5 2 -8 9 -4 14 3 5 0
9 -6 9 -7 0 -10 -5 -8 -12z"/>
<path d="M2692 1925 c0 -16 2 -22 5 -12 2 9 2 23 0 30 -3 6 -5 -1 -5 -18z"/>
<path d="M4820 1940 c0 -5 5 -10 10 -10 6 0 10 5 10 10 0 6 -4 10 -10 10 -5 0
-10 -4 -10 -10z"/>
<path d="M4415 1900 c3 -5 11 -10 16 -10 6 0 7 5 4 10 -3 6 -11 10 -16 10 -6
0 -7 -4 -4 -10z"/>
<path d="M4986 1855 c-9 -26 -7 -32 5 -12 6 10 9 21 6 23 -2 3 -7 -2 -11 -11z"/>
<path d="M4956 1807 c3 -10 9 -15 12 -12 3 3 0 11 -7 18 -10 9 -11 8 -5 -6z"/>
<path d="M4870 1695 c0 -8 2 -15 4 -15 2 0 6 7 10 15 3 8 1 15 -4 15 -6 0 -10
-7 -10 -15z"/>
<path d="M2880 1590 c0 -5 5 -10 10 -10 6 0 10 5 10 10 0 6 -4 10 -10 10 -5 0
-10 -4 -10 -10z"/>
<path d="M2926 1575 c-19 -14 -19 -15 7 -39 30 -28 37 -23 10 7 -17 18 -17 19
2 33 10 8 15 14 9 14 -5 0 -18 -7 -28 -15z"/>
<path d="M3020 1500 c0 -5 5 -10 10 -10 6 0 10 5 10 10 0 6 -4 10 -10 10 -5 0
-10 -4 -10 -10z"/>
<path d="M4648 1471 c-10 -10 -18 -21 -18 -25 0 -9 49 27 50 37 0 12 -14 7
-32 -12z"/>
<path d="M3178 1403 c7 -3 16 -2 19 1 4 3 -2 6 -13 5 -11 0 -14 -3 -6 -6z"/>
<path d="M4519 1387 c-15 -11 -22 -47 -10 -47 6 0 32 52 28 56 -1 1 -9 -3 -18
-9z"/>
<path d="M3280 1330 c-12 -8 -12 -10 5 -10 11 0 27 5 35 10 12 8 12 10 -5 10
-11 0 -27 -5 -35 -10z"/>
<path d="M4440 1321 c0 -5 9 -7 20 -4 11 3 20 7 20 9 0 2 -9 4 -20 4 -11 0
-20 -4 -20 -9z"/>
<path d="M4397 1309 c7 -7 15 -10 18 -7 3 3 -2 9 -12 12 -14 6 -15 5 -6 -5z"/>
<path d="M3478 1253 c7 -3 16 -2 19 1 4 3 -2 6 -13 5 -11 0 -14 -3 -6 -6z"/>
<path d="M3655 1250 c29 -7 29 -8 -10 -9 -22 -1 -47 -6 -55 -12 -12 -8 -11 -9
5 -5 11 3 53 8 93 12 40 4 71 8 70 9 -2 1 -32 5 -68 8 -41 3 -54 2 -35 -3z"/>
<path d="M3818 1253 c7 -3 16 -2 19 1 4 3 -2 6 -13 5 -11 0 -14 -3 -6 -6z"/>
<path d="M3528 1243 c6 -2 18 -2 25 0 6 3 1 5 -13 5 -14 0 -19 -2 -12 -5z"/>
<path d="M3738 1223 c7 -3 16 -2 19 1 4 3 -2 6 -13 5 -11 0 -14 -3 -6 -6z"/>
<path d="M3978 1213 c7 -3 16 -2 19 1 4 3 -2 6 -13 5 -11 0 -14 -3 -6 -6z"/>
<path d="M4575 5774 c-146 -63 -99 -191 70 -193 53 0 66 4 115 37 47 32 55 42
57 72 3 38 -8 56 -50 83 -33 21 -143 22 -192 1z"/>
<path d="M786 5761 c-13 -20 130 -401 153 -409 25 -8 22 35 -8 112 -18 44 -41
101 -51 126 -9 25 -27 75 -40 113 -20 62 -39 82 -54 58z"/>
<path d="M6575 5706 c-69 -38 -85 -67 -65 -115 9 -22 26 -38 56 -52 39 -17 53
-18 118 -10 200 24 208 185 11 204 -55 6 -66 3 -120 -27z"/>
<path d="M6961 5509 c-54 -16 -110 -57 -117 -85 -17 -67 46 -114 151 -114 111
1 185 45 185 110 0 36 -46 76 -95 84 -22 4 -51 8 -65 11 -14 2 -40 -1 -59 -6z"/>
<path d="M965 5310 c-9 -14 2 -44 42 -117 24 -44 39 -60 49 -56 21 8 13 37
-32 118 -35 64 -47 75 -59 55z"/>
<path d="M6512 5246 c-53 -19 -108 -90 -121 -157 -35 -177 133 -203 221 -35
30 57 36 145 12 173 -23 27 -68 35 -112 19z"/>
<path d="M2628 5236 c-65 -23 -107 -100 -94 -170 9 -46 40 -67 104 -68 87 0
159 57 148 118 -12 60 -44 111 -77 123 -38 13 -35 13 -81 -3z m79 -92 c17 -35
17 -36 -6 -55 -14 -11 -39 -19 -62 -19 -35 0 -39 3 -39 25 0 15 7 39 15 55 12
23 22 30 45 30 25 0 33 -7 47 -36z"/>
<path d="M6799 5137 c-14 -12 -31 -35 -38 -52 -7 -16 -17 -38 -22 -47 -21 -40
2 -160 35 -190 32 -29 82 -23 117 14 31 34 33 39 45 103 27 141 -54 244 -137
172z"/>
<path d="M1073 5085 c-16 -43 370 -680 627 -1035 22 -30 48 -66 57 -80 10 -14
60 -81 112 -150 51 -69 95 -130 97 -135 3 -6 -9 -31 -25 -56 -26 -43 -28 -51
-23 -118 5 -69 7 -74 36 -92 37 -23 69 -24 86 -4 7 8 19 15 26 15 8 0 14 6 14
13 0 13 30 47 42 47 3 0 33 -34 68 -75 60 -74 82 -86 88 -52 3 14 -50 84 -115
155 -18 19 -26 58 -19 86 3 14 2 28 -4 31 -5 3 -10 17 -10 30 0 37 -44 66 -90
59 l-37 -6 -74 97 c-206 271 -428 597 -595 870 -57 94 -199 348 -217 388 -13
30 -34 36 -44 12z"/>
<path d="M2832 4997 c-62 -27 -72 -39 -72 -85 0 -48 47 -88 116 -100 54 -9
152 0 163 15 3 4 15 13 26 19 27 15 33 79 9 105 -32 35 -78 57 -134 63 -45 5
-65 2 -108 -17z"/>
<path d="M4260 4915 c-11 -13 -3 -25 50 -74 58 -55 90 -68 90 -37 0 12 -110
126 -122 126 -3 0 -11 -7 -18 -15z"/>
<path d="M4817 4904 c-4 -4 -30 -11 -59 -15 -46 -7 -59 -15 -97 -56 -24 -26
-47 -58 -52 -71 -12 -31 -11 -114 1 -147 7 -18 6 -31 -2 -45 -11 -17 -3 -28
69 -101 47 -48 85 -79 92 -75 18 12 12 29 -24 70 -41 44 -43 51 -14 35 38 -20
132 -6 185 27 123 75 153 259 55 331 -61 46 -133 67 -154 47z m61 -105 c49
-14 62 -32 62 -83 0 -111 -133 -177 -212 -107 -30 26 -33 35 -33 84 0 45 5 60
25 82 33 35 71 53 95 44 11 -4 39 -13 63 -20z"/>
<path d="M6528 4857 c-34 -24 -59 -64 -78 -132 -10 -35 -9 -48 11 -100 26 -70
41 -84 89 -85 28 0 40 7 63 35 37 46 47 76 47 141 0 71 -31 139 -70 153 -24 8
-35 6 -62 -12z"/>
<path d="M2484 4751 c-34 -21 -47 -64 -37 -126 3 -21 -1 -58 -12 -91 -12 -39
-16 -73 -12 -110 5 -48 3 -57 -17 -77 -53 -50 -29 -174 48 -251 86 -87 184
-35 157 83 -10 47 -13 44 62 59 48 10 59 5 63 -25 3 -20 47 -71 67 -78 21 -8
77 3 77 15 0 5 11 20 23 33 30 29 44 128 26 173 -7 16 -13 36 -15 44 -2 8 -16
27 -32 41 -16 14 -32 37 -35 51 -12 45 -82 160 -110 180 -19 14 -39 19 -62 16
-19 -2 -36 -1 -37 2 -6 12 -101 80 -112 80 -6 0 -25 -9 -42 -19z m236 -197
c63 -73 67 -127 12 -182 -42 -42 -79 -54 -136 -45 -91 15 -114 155 -38 236 22
23 34 27 78 27 47 0 55 -3 84 -36z"/>
<path d="M4422 4757 c-8 -9 7 -30 60 -85 70 -72 91 -84 101 -58 5 12 -129 156
-145 156 -3 0 -10 -6 -16 -13z"/>
<path d="M6045 4541 c-63 -39 -91 -85 -100 -167 -7 -55 -5 -62 20 -92 19 -22
35 -32 55 -32 69 0 115 37 157 129 21 45 24 63 18 108 -4 37 -12 56 -25 63
-30 16 -92 12 -125 -9z"/>
<path d="M6358 4447 c-93 -76 -87 -292 9 -310 37 -7 68 10 99 54 21 31 26 51
29 110 3 85 -7 121 -42 149 -33 26 -62 25 -95 -3z"/>
<path d="M4807 4373 c-17 -16 -2 -43 59 -106 62 -65 84 -75 84 -39 -1 16 -118
152 -131 152 -3 0 -9 -3 -12 -7z"/>
<path d="M4977 4183 c-15 -15 -5 -37 41 -85 26 -27 51 -56 55 -64 10 -18 36
-18 43 1 4 9 -18 41 -58 85 -64 71 -69 75 -81 63z"/>
<path d="M6067 4151 c-40 -36 -73 -132 -62 -183 39 -178 181 -160 208 26 9 64
8 75 -12 118 -34 75 -78 88 -134 39z"/>
<path d="M2040 4069 c-81 -53 -124 -170 -84 -227 12 -18 25 -22 70 -22 64 0
78 6 128 56 46 46 66 93 66 154 0 40 -3 48 -25 58 -45 21 -106 13 -155 -19z"/>
<path d="M5135 3990 c-6 -10 9 -33 69 -105 23 -27 26 -29 41 -14 15 14 12 20
-32 72 -47 56 -66 67 -78 47z"/>
<path d="M5610 3971 c-66 -13 -100 -44 -100 -89 0 -42 112 -119 175 -120 47
-2 118 19 143 41 55 50 1 136 -101 162 -62 16 -64 16 -117 6z"/>
<path d="M2370 3933 c-18 -7 -35 -25 -75 -78 -25 -34 -30 -51 -34 -113 -3 -65
-1 -76 19 -97 35 -37 67 -40 111 -9 77 53 119 209 73 271 -21 28 -61 39 -94
26z"/>
<path d="M5271 3831 c-10 -7 0 -25 45 -80 32 -39 61 -71 65 -71 4 0 12 6 18
14 9 11 0 27 -41 79 -54 67 -63 73 -87 58z"/>
<path d="M5872 3676 c-46 -15 -81 -50 -81 -81 0 -50 114 -125 190 -125 42 0
118 30 134 53 64 92 -104 198 -243 153z"/>
<path d="M5450 3667 c-83 -42 -24 -187 94 -232 34 -13 55 -32 87 -76 36 -48
46 -56 61 -48 24 13 23 14 -14 61 -31 39 -31 41 -12 54 50 34 56 47 49 99 -8
59 -41 95 -121 131 -60 27 -106 30 -144 11z"/>
<path d="M1623 3464 c-119 -44 -124 -137 -7 -150 89 -11 174 36 174 95 0 58
-83 86 -167 55z"/>
<path d="M1915 3339 c-36 -10 -81 -50 -90 -79 -23 -74 116 -106 211 -49 35 21
57 63 49 90 -13 41 -96 60 -170 38z"/>
<path d="M5715 3270 c-7 -11 -5 -15 54 -98 27 -37 52 -62 63 -62 30 0 21 26
-33 100 -48 67 -70 82 -84 60z"/>
<path d="M1582 3200 c-33 -14 -48 -52 -33 -87 38 -91 214 -104 252 -19 15 33
-13 84 -56 102 -38 16 -128 18 -163 4z"/>
<path d="M1332 3073 c-27 -11 -44 -64 -38 -116 9 -61 27 -98 62 -126 34 -27
49 -26 79 4 21 20 25 34 25 84 0 71 -9 97 -45 134 -26 25 -53 32 -83 20z"/>
<path d="M5867 3073 c-11 -10 -8 -28 8 -48 9 -11 33 -44 53 -74 41 -59 59 -71
68 -46 4 10 -13 45 -47 96 -50 74 -66 88 -82 72z"/>
<path d="M6012 2857 c-8 -10 -1 -29 30 -75 40 -61 63 -76 74 -48 6 14 -71 136
-86 136 -4 0 -12 -6 -18 -13z"/>
<path d="M1183 2775 c-18 -13 -36 -52 -36 -80 0 -5 3 -32 8 -60 9 -55 57 -115
92 -115 47 0 83 86 69 163 -7 40 -66 107 -93 107 -10 0 -28 -7 -40 -15z"/>
<path d="M1495 2780 c-36 -14 -58 -49 -71 -110 -14 -68 -10 -96 19 -127 27
-30 68 -29 106 2 93 79 48 277 -54 235z"/>
<path d="M6124 2677 c-6 -17 113 -207 131 -207 29 0 20 31 -36 121 -58 92 -83
115 -95 86z"/>
<path d="M932 2487 c-41 -13 -92 -62 -92 -88 0 -50 86 -81 165 -59 90 25 129
112 65 145 -33 17 -89 18 -138 2z"/>
<path d="M6285 2420 c-8 -14 84 -180 101 -180 30 0 24 29 -23 109 -44 76 -64
94 -78 71z"/>
<path d="M1223 2359 c-68 -26 -106 -85 -78 -122 12 -17 84 -37 113 -32 9 2 29
6 44 9 79 17 116 103 62 145 -33 26 -74 26 -141 0z"/>
<path d="M913 2229 c-35 -10 -63 -42 -63 -71 0 -10 15 -35 34 -55 31 -34 39
-37 97 -40 181 -11 183 149 2 171 -21 3 -52 1 -70 -5z"/>
<path d="M6410 2193 c0 -27 83 -183 98 -183 27 0 22 31 -21 112 -42 79 -77
111 -77 71z"/>
<path d="M754 1984 c-34 -52 -13 -145 45 -197 48 -43 95 -56 121 -32 48 43 30
134 -40 207 -56 58 -98 65 -126 22z"/>
<path d="M6533 1964 c-3 -9 8 -44 25 -80 24 -49 37 -64 53 -64 27 0 22 22 -21
103 -33 59 -46 69 -57 41z"/>
<path d="M530 1923 c-68 -19 -81 -188 -20 -253 49 -53 129 -33 146 37 8 29 -1
121 -14 153 -11 27 -64 71 -84 69 -7 -1 -20 -3 -28 -6z"/>
<path d="M6624 1765 c-4 -8 0 -30 8 -48 8 -17 21 -48 28 -67 18 -47 29 -60 46
-53 20 7 18 18 -17 106 -30 74 -52 96 -65 62z"/>
<path d="M712 1647 c-22 -26 -24 -67 -7 -120 25 -76 80 -127 138 -127 34 0 67
39 67 81 -1 44 -49 128 -90 157 -36 24 -92 29 -108 9z"/>
<path d="M6713 1545 c-9 -25 31 -129 51 -133 22 -5 21 39 -3 98 -20 48 -37 61
-48 35z"/>
<path d="M461 1412 c-22 -41 -13 -75 34 -128 54 -62 111 -84 169 -64 47 15 56
48 29 104 -29 59 -87 96 -161 103 -53 5 -61 3 -71 -15z"/>
<path d="M6773 1359 c-8 -8 -6 -25 4 -62 24 -82 32 -97 48 -97 18 0 18 7 1 86
-18 83 -28 98 -53 73z"/>
<path d="M276 1228 c-42 -59 4 -187 81 -227 65 -34 123 3 123 78 0 38 -8 56
-43 103 -43 58 -59 68 -114 68 -22 0 -37 -7 -47 -22z"/>
<path d="M6817 1153 c-9 -14 15 -157 27 -165 19 -13 26 3 25 55 -2 74 -12 111
-31 115 -9 2 -19 -1 -21 -5z"/>
<path d="M600 1096 c-50 -16 -58 -62 -20 -114 56 -76 110 -106 175 -95 52 8
72 41 56 94 -9 31 -24 47 -65 74 -68 46 -103 55 -146 41z"/>
<path d="M2307 1073 c-24 -27 -23 -112 2 -161 48 -94 149 -127 197 -64 32 41
-1 145 -64 206 -40 37 -109 47 -135 19z"/>
<path d="M2034 1029 c-29 -32 -30 -132 -2 -189 26 -50 78 -91 108 -83 26 7 60
80 60 130 0 116 -106 208 -166 142z"/>
<path d="M2642 928 c-47 -13 -58 -46 -31 -103 23 -49 76 -101 112 -110 13 -4
45 -5 73 -3 43 3 51 7 63 32 19 40 -1 99 -43 126 -17 10 -41 27 -53 36 -31 23
-82 32 -121 22z"/>
<path d="M6835 883 c-3 -32 -10 -82 -15 -112 -8 -42 -7 -57 2 -63 29 -18 34
-8 49 112 12 94 9 120 -15 120 -10 0 -16 -17 -21 -57z"/>
<path d="M605 800 c-80 -21 -138 -80 -114 -117 44 -71 188 -76 254 -9 80 79
-10 160 -140 126z"/>
<path d="M1270 720 c-93 -50 -136 -125 -92 -162 79 -69 273 32 253 132 -10 51
-93 67 -161 30z"/>
<path d="M1901 725 c-35 -18 -50 -53 -51 -119 0 -90 51 -166 113 -166 30 0 37
5 51 35 25 53 30 124 12 165 -33 74 -83 108 -125 85z"/>
<path d="M2207 709 c-40 -30 -54 -65 -56 -141 -3 -76 18 -125 55 -134 21 -5
77 17 99 40 39 41 58 151 34 199 -29 57 -84 71 -132 36z"/>
<path d="M1620 675 c-64 -34 -101 -75 -107 -123 -5 -37 -3 -41 26 -56 67 -35
186 13 223 89 20 42 21 45 4 70 -17 26 -54 46 -84 44 -9 0 -37 -11 -62 -24z"/>
<path d="M5414 659 c-10 -16 -1 -21 149 -89 112 -50 140 -60 152 -50 21 17 19
27 -7 36 -13 4 -76 31 -140 60 -121 56 -142 62 -154 43z"/>
<path d="M912 648 c-50 -11 -112 -67 -112 -102 0 -43 57 -73 137 -70 90 3 162
62 148 123 -12 55 -72 72 -173 49z"/>
<path d="M6753 595 c-25 -39 -61 -78 -92 -100 -49 -35 -69 -75 -37 -75 33 0
138 98 177 166 34 60 36 74 11 74 -12 0 -34 -24 -59 -65z"/>
<path d="M522 500 c-13 -10 -25 -34 -28 -52 -5 -28 0 -39 27 -67 43 -42 66
-51 141 -51 54 0 63 3 89 31 33 36 35 48 13 90 -32 62 -189 94 -242 49z"/>
<path d="M5765 510 c-11 -17 3 -27 78 -53 103 -37 257 -74 362 -88 161 -21
376 5 362 43 -5 15 -32 15 -141 -2 -129 -20 -348 13 -556 84 -83 29 -96 31
-105 16z"/>
<path d="M1315 438 c-39 -21 -75 -62 -75 -84 0 -35 40 -72 93 -86 129 -34 253
81 171 157 -23 22 -36 25 -98 25 -39 0 -80 -6 -91 -12z"/>
</g>
</svg>
